<svg xmlns="http://www.w3.org/2000/svg" xmlns:xlink="http://www.w3.org/1999/xlink" width="40" zoomAndPan="magnify" viewBox="0 0 30 30.000001" height="40" preserveAspectRatio="xMidYMid meet" version="1.0"><defs><clipPath id="9279892c20"><path d="M 3.277344 0 L 26.5 0 L 26.5 29.03125 L 3.277344 29.03125 Z M 3.277344 0 " clip-rule="nonzero"/></clipPath><clipPath id="785119d9e3"><path d="M 11.0625 10.632812 L 19 10.632812 L 19 18.617188 L 11.0625 18.617188 Z M 11.0625 10.632812 " clip-rule="nonzero"/></clipPath></defs><g clip-path="url(#9279892c20)"><path fill="#ffffff" d="M 3.285156 -0.0117188 L 14.890625 8.015625 L 26.492188 -0.0117188 L 14.890625 29.042969 Z M 3.285156 -0.0117188 " fill-opacity="1" fill-rule="nonzero"/></g><g clip-path="url(#785119d9e3)"><path fill="#ffffff" d="M 18.820312 14.511719 C 18.820312 14.765625 18.792969 15.019531 18.746094 15.269531 C 18.695312 15.519531 18.621094 15.761719 18.523438 15.996094 C 18.425781 16.230469 18.308594 16.453125 18.164062 16.667969 C 18.023438 16.878906 17.863281 17.074219 17.683594 17.253906 C 17.503906 17.433594 17.308594 17.59375 17.097656 17.738281 C 16.882812 17.878906 16.660156 17.996094 16.425781 18.09375 C 16.191406 18.191406 15.949219 18.265625 15.699219 18.316406 C 15.449219 18.367188 15.195312 18.390625 14.941406 18.390625 C 14.6875 18.390625 14.433594 18.367188 14.183594 18.316406 C 13.933594 18.265625 13.691406 18.191406 13.457031 18.09375 C 13.222656 17.996094 12.996094 17.878906 12.785156 17.738281 C 12.574219 17.59375 12.378906 17.433594 12.199219 17.253906 C 12.019531 17.074219 11.859375 16.878906 11.714844 16.667969 C 11.574219 16.453125 11.457031 16.230469 11.359375 15.996094 C 11.261719 15.761719 11.1875 15.519531 11.136719 15.269531 C 11.085938 15.019531 11.0625 14.765625 11.0625 14.511719 C 11.0625 14.257812 11.085938 14.003906 11.136719 13.753906 C 11.1875 13.503906 11.261719 13.261719 11.359375 13.027344 C 11.457031 12.792969 11.574219 12.570312 11.714844 12.355469 C 11.859375 12.144531 12.019531 11.949219 12.199219 11.769531 C 12.378906 11.589844 12.574219 11.429688 12.785156 11.285156 C 12.996094 11.144531 13.222656 11.027344 13.457031 10.929688 C 13.691406 10.832031 13.933594 10.757812 14.183594 10.707031 C 14.433594 10.65625 14.6875 10.632812 14.941406 10.632812 C 15.195312 10.632812 15.449219 10.65625 15.699219 10.707031 C 15.949219 10.757812 16.191406 10.832031 16.425781 10.929688 C 16.660156 11.027344 16.882812 11.144531 17.097656 11.285156 C 17.308594 11.429688 17.503906 11.589844 17.683594 11.769531 C 17.863281 11.949219 18.023438 12.144531 18.164062 12.355469 C 18.308594 12.570312 18.425781 12.792969 18.523438 13.027344 C 18.621094 13.261719 18.695312 13.503906 18.746094 13.753906 C 18.792969 14.003906 18.820312 14.257812 18.820312 14.511719 Z M 18.820312 14.511719 " fill-opacity="1" fill-rule="nonzero"/></g></svg>